{
  "accessors": [
    {
      "bufferView": 2,
      "componentType": 5126,
      "count": 6214,
      "max": [
        11.449883460998535,
        11.454554557800293,
        11.459227561950684
      ],
      "min": [
        -11.449883460998535,
        -11.454554557800293,
        -11.459227561950684
      ],
      "type": "VEC3"
    },
    {
      "bufferView": 2,
      "byteOffset": 74568,
      "componentType": 5126,
      "count": 6214,
      "max": [
        0.9991850852966309,
        0.9995926022529602,
        1.0
      ],
      "min": [
        -0.9991850256919861,
        -0.9995926022529602,
        -1.0
      ],
      "type": "VEC3"
    },
    {
      "bufferView": 1,
      "componentType": 5126,
      "count": 6214,
      "max": [
        0.9999997019767761,
        1.0
      ],
      "min": [
        0.0,
        2.980232238769531e-07
      ],
      "type": "VEC2"
    },
    {
      "bufferView": 0,
      "componentType": 5125,
      "count": 35640,
      "type": "SCALAR"
    }
  ],
  "asset": {
    "extras": {
      "author": "MyArtExpress (https://sketchfab.com/MyArtExpress)",
      "license": "CC-BY-4.0 (http://creativecommons.org/licenses/by/4.0/)",
      "source": "https://sketchfab.com/3d-models/galaxy-ball-2-fa4d87a47188431b9183c0aeb195136c",
      "title": "Galaxy Ball 2"
    },
    "generator": "Sketchfab-14.49.0",
    "version": "2.0"
  },
  "bufferViews": [
    {
      "buffer": 0,
      "byteLength": 142560,
      "name": "floatBufferViews",
      "target": 34963
    },
    {
      "buffer": 0,
      "byteLength": 49712,
      "byteOffset": 142560,
      "byteStride": 8,
      "name": "floatBufferViews",
      "target": 34962
    },
    {
      "buffer": 0,
      "byteLength": 149136,
      "byteOffset": 192272,
      "byteStride": 12,
      "name": "floatBufferViews",
      "target": 34962
    }
  ],
  "buffers": [
    {
      "byteLength": 341408,
      "uri": "scene.bin"
    }
  ],
  "images": [
    {
      "uri": "textures/Material_25_metallicRoughness.png"
    }
  ],
  "materials": [
    {
      "doubleSided": true,
      "name": "Material_25",
      "pbrMetallicRoughness": {
        "baseColorFactor": [
          0.006770660076735756,
          0.0693571372228666,
          0.001900282393480535,
          1.0
        ],
        "metallicRoughnessTexture": {
          "index": 0
        },
        "roughnessFactor": 0.0
      }
    }
  ],
  "meshes": [
    {
      "name": "Sphere001_Material #25_0",
      "primitives": [
        {
          "attributes": {
            "NORMAL": 1,
            "POSITION": 0,
            "TEXCOORD_0": 2
          },
          "indices": 3,
          "material": 0,
          "mode": 4
        }
      ]
    }
  ],
  "nodes": [
    {
      "children": [
        1
      ],
      "matrix": [
        1.0,
        0.0,
        0.0,
        0.0,
        0.0,
        2.220446049250313e-16,
        -1.0,
        0.0,
        0.0,
        1.0,
        2.220446049250313e-16,
        0.0,
        0.0,
        0.0,
        0.0,
        1.0
      ],
      "name": "Sketchfab_model"
    },
    {
      "children": [
        2
      ],
      "matrix": [
        0.0010000000474974513,
        0.0,
        0.0,
        0.0,
        0.0,
        0.0,
        0.0010000000474974513,
        0.0,
        0.0,
        -0.0010000000474974513,
        0.0,
        0.0,
        0.0,
        0.0,
        0.0,
        1.0
      ],
      "name": "f755a00f81a645c89e3233a80643610a.fbx"
    },
    {
      "children": [
        3
      ],
      "name": "RootNode"
    },
    {
      "children": [
        4
      ],
      "matrix": [
        4.243433952331543,
        0.0,
        0.0,
        0.0,
        0.0,
        9.422316154709216e-16,
        -4.243433952331543,
        0.0,
        0.0,
        4.243433952331543,
        9.422316154709216e-16,
        0.0,
        -9.565223693847656,
        11.033721923828125,
        11.30108642578125,
        1.0
      ],
      "name": "Sphere001"
    },
    {
      "mesh": 0,
      "name": "Sphere001_Material #25_0"
    }
  ],
  "samplers": [
    {
      "magFilter": 9729,
      "minFilter": 9987,
      "wrapS": 10497,
      "wrapT": 10497
    }
  ],
  "scene": 0,
  "scenes": [
    {
      "name": "Sketchfab_Scene",
      "nodes": [
        0
      ]
    }
  ],
  "textures": [
    {
      "sampler": 0,
      "source": 0
    }
  ]
}
